<?xml version="1.0" encoding="UTF-8"?>
<svg version="1.1" xmlns="http://www.w3.org/2000/svg" width="281" height="89">
<path d="M0 0 C2.3125 1.4375 2.3125 1.4375 3.09765625 3.08203125 C3.41198072 6.52817041 2.2291162 9.37667891 1.0625 12.5625 C0.58687216 13.90565998 0.11291568 15.24941296 -0.359375 16.59375 C-0.59076172 17.24859375 -0.82214844 17.9034375 -1.06054688 18.578125 C-1.89149325 21.04248932 -2.53555335 23.54568269 -3.1875 26.0625 C-4.43856098 30.27955949 -6.02026188 32.8180442 -9.6875 35.4375 C-13.48230531 36.06996755 -14.41692857 35.61788095 -17.6875 33.4375 C-18.6775 34.0975 -19.6675 34.7575 -20.6875 35.4375 C-23.875 35.0625 -23.875 35.0625 -26.6875 34.4375 C-28.5899722 28.98454909 -26.12368999 23.81622964 -24.5625 18.5 C-24.26601563 17.41525391 -23.96953125 16.33050781 -23.6640625 15.21289062 C-21.95854211 9.33390402 -20.67231557 5.1579924 -15.6875 1.4375 C-12.64382091 0.32395887 -11.38294981 0.15556089 -8.375 1.375 C-7.818125 1.725625 -7.26125 2.07625 -6.6875 2.4375 C-6.130625 1.90125 -5.57375 1.365 -5 0.8125 C-2.6875 -0.5625 -2.6875 -0.5625 0 0 Z " fill="#F3F3F2" transform="translate(61.6875,31.5625)"/>
<path d="M0 0 C2.26441842 0.05859688 2.26441842 0.05859688 5.5 -0.625 C6.655 -0.74875 7.81 -0.8725 9 -1 C9.66 -0.34 10.32 0.32 11 1 C10.83691406 2.82128906 10.83691406 2.82128906 10.265625 5.015625 C10.06388672 5.82064453 9.86214844 6.62566406 9.65429688 7.45507812 C9.43837891 8.29490234 9.22246094 9.13472656 9 10 C8.6377367 11.61914815 8.27834428 13.23894139 7.921875 14.859375 C7.53312642 16.49003181 7.14249389 18.12024062 6.75 19.75 C6.57082031 20.57371094 6.39164063 21.39742187 6.20703125 22.24609375 C4.77134988 28.0732711 3.06483197 30.70488767 -2 34 C-5.8281673 34.62319003 -6.69985205 34.20009864 -10 32 C-10.99 32.66 -11.98 33.32 -13 34 C-16.1875 33.625 -16.1875 33.625 -19 33 C-19.44960844 26.59969163 -17.85296268 21.40767228 -15.8125 15.375 C-15.52052734 14.446875 -15.22855469 13.51875 -14.92773438 12.5625 C-13.12093401 7.13821331 -11.49111102 3.60170933 -7 0 C-4.32147752 -1.33926124 -2.86420842 -0.64444689 0 0 Z " fill="#F5F4F4" transform="translate(197,33)"/>
<path d="M0 0 C2.75726791 2.75726791 3.21466396 5.35704515 3.4375 9.125 C3.12290586 17.3318037 0.02274772 24.59156571 -5.4375 30.66015625 C-7.90626178 32.77711948 -9.94301952 33.92742564 -13.21875 34.15234375 C-17.19692192 33.77768715 -19.38839904 33.51986082 -22.5 30.875 C-24.77614309 26.51239242 -25.53000433 23.30133458 -24.40625 18.421875 C-21.94917101 10.83882086 -18.24979731 3.3509517 -11.0625 -0.625 C-6.93203314 -1.13077145 -4.07838038 -1.00288042 0 0 Z M-12 19 C-11 21 -11 21 -11 21 Z " fill="#F5F5F4" transform="translate(87,33)"/>
<path d="M0 0 C2.21484375 1.2265625 2.21484375 1.2265625 4 3 C5.14987912 7.91235124 4.55064339 12.04081473 2.0625 16.375 C1.381875 17.24125 0.70125 18.1075 0 19 C-1.63834566 22.74479009 -0.43194983 25.29377692 1 29 C-0.9375 31.625 -0.9375 31.625 -4 34 C-6.50840751 33.7967325 -8.62562354 33.20798683 -11.01171875 32.41796875 C-11.66785156 32.28003906 -12.32398437 32.14210937 -13 32 C-13.66 32.66 -14.32 33.32 -15 34 C-20.33333333 34.33333333 -20.33333333 34.33333333 -23 33 C-24.01108172 22.68696641 -19.29071587 12.07672353 -13 4 C-8.83870378 -0.49869861 -5.85264356 -0.65029373 0 0 Z " fill="#ECECEB" transform="translate(113,32)"/>
<path d="M0 0 C1.9375 2.9375 1.9375 2.9375 2.0625 6.4375 C0.75283657 10.51200845 -0.75986907 12.26394163 -4.0625 14.9375 C-7.68576739 16.1452558 -8.70396369 15.48061128 -12.0625 13.9375 C-13.0525 16.4125 -13.0525 16.4125 -14.0625 18.9375 C-12.94875 18.751875 -11.835 18.56625 -10.6875 18.375 C-7.0625 17.9375 -7.0625 17.9375 -5.0625 18.9375 C-4.125 21.6875 -4.125 21.6875 -4.0625 24.9375 C-6.57651601 28.08002002 -8.2321911 29.66073037 -12.0625 30.9375 C-17.36792058 31.2797852 -20.77195518 31.44794576 -25.0625 27.9375 C-26.93340263 22.3247921 -26.89722771 16.23090564 -24.24609375 10.83984375 C-17.39384657 -0.17350403 -17.39384657 -0.17350403 -13.0546875 -1.828125 C-4.25218134 -2.86371396 -4.25218134 -2.86371396 0 0 Z " fill="#F4F4F2" transform="translate(179.0625,35.0625)"/>
<path d="M0 0 C2.5 1.5 2.5 1.5 4 4 C4.7152453 9.00671711 4.81148802 10.85436985 1.875 15 C-1.4580898 17.31867116 -3.02524236 17.61829563 -7 17 C-7.66 16.34 -8.32 15.68 -9 15 C-9.66 16.98 -10.32 18.96 -11 21 C-9.88625 20.79375 -8.7725 20.5875 -7.625 20.375 C-6.42875 20.25125 -5.2325 20.1275 -4 20 C-2 22 -2 22 -1.625 24.875 C-2 28 -2 28 -3.8125 30.3125 C-7.57105217 33.21195453 -11.17945042 33.41439812 -15.76953125 33.33203125 C-18 33 -18 33 -21.0625 31.0625 C-23.72161153 26.85938822 -23.8374655 23.84307881 -23 19 C-20.93859591 11.85784113 -16.4815134 4.72981074 -10.03125 0.80078125 C-6.66857777 -0.52488761 -3.5497575 -0.56737927 0 0 Z " fill="#F5F5F3" transform="translate(33,33)"/>
<path d="M0 0 C0.33 0.33 0.66 0.66 1 1 C0.76491154 8.40528646 -1.37505429 13.59280813 -5 20 C-3.35 21.32 -1.7 22.64 0 24 C-0.48648649 29.47297297 -0.48648649 29.47297297 -2.6328125 31.67578125 C-5.75491234 33.42230245 -8.06456936 33.39911127 -11.625 33.375 C-12.77226562 33.38273437 -13.91953125 33.39046875 -15.1015625 33.3984375 C-16.05804688 33.26695313 -17.01453125 33.13546875 -18 33 C-20.54393361 29.18409958 -20.41306265 27.55276743 -20 23 C-19.00940889 19.66112946 -17.69468827 16.50617379 -16.3125 13.3125 C-15.97283203 12.47138672 -15.63316406 11.63027344 -15.28320312 10.76367188 C-12.03773221 3.11406659 -8.90277009 -0.85603559 0 0 Z " fill="#F5F4F3" transform="translate(244,33)"/>
<path d="M0 0 C1 1 1 1 1.25 4.12890625 C0.97279392 8.42126908 -0.10133136 11.10060711 -2 14.9375 C-2.556875 16.08089844 -3.11375 17.22429688 -3.6875 18.40234375 C-4.3371875 19.68818359 -4.3371875 19.68818359 -5 21 C-3.68 21.33 -2.36 21.66 -1 22 C-0.25 25.25 -0.25 25.25 0 29 C-2.17162344 32.03380644 -3.43199791 32.89717815 -7.12890625 33.56640625 C-8.26199219 33.56511719 -9.39507812 33.56382813 -10.5625 33.5625 C-11.69816406 33.58441406 -12.83382812 33.60632813 -14.00390625 33.62890625 C-17 33 -17 33 -18.9296875 30.7109375 C-21.76675207 23.52508781 -16.39803073 14.79235278 -13.53515625 8.13671875 C-12.2089639 5.42696695 -11.02364102 3.22442003 -9 1 C-5.78419562 -0.07193479 -3.36629251 -0.14636054 0 0 Z " fill="#F3F3F1" transform="translate(266,33)"/>
<path d="M0 0 C0.46486635 6.53547399 -1.20541868 11.99503477 -3.1875 18.1875 C-3.47947266 19.17169922 -3.77144531 20.15589844 -4.07226562 21.16992188 C-6.93511345 30.22637165 -6.93511345 30.22637165 -12 33 C-15.1875 33.375 -15.1875 33.375 -18 33 C-18.66 32.34 -19.32 31.68 -20 31 C-19.65926381 25.13933761 -17.79809501 19.86433393 -15.8125 14.375 C-15.53341797 13.54226562 -15.25433594 12.70953125 -14.96679688 11.8515625 C-12.31108607 4.48826721 -8.71163139 -1.03709898 0 0 Z " fill="#F3F3F2" transform="translate(136,33)"/>
<path d="M0 0 C2.75 0.375 2.75 0.375 3.75 1.375 C3.27051043 7.52497487 1.86895419 13.17875332 0.0625 19.0625 C-0.16888672 19.89072266 -0.40027344 20.71894531 -0.63867188 21.57226562 C-2.37703588 27.24123857 -4.17735258 30.18909017 -9.25 33.375 C-13.125 33.1875 -13.125 33.1875 -16.25 32.375 C-15.74942002 25.76207495 -14.4484738 20.2722321 -12 14.125 C-11.71253906 13.34898438 -11.42507812 12.57296875 -11.12890625 11.7734375 C-8.9396045 6.17111948 -6.55137581 0.75592798 0 0 Z " fill="#F2F1F0" transform="translate(221.25,32.625)"/>
<path d="M0 0 C2.3125 1.4375 2.3125 1.4375 3.09765625 3.08203125 C3.41198072 6.52817041 2.2291162 9.37667891 1.0625 12.5625 C0.58687216 13.90565998 0.11291568 15.24941296 -0.359375 16.59375 C-0.59076172 17.24859375 -0.82214844 17.9034375 -1.06054688 18.578125 C-1.89149325 21.04248932 -2.53555335 23.54568269 -3.1875 26.0625 C-4.43856098 30.27955949 -6.02026188 32.8180442 -9.6875 35.4375 C-13.48230531 36.06996755 -14.41692857 35.61788095 -17.6875 33.4375 C-18.6775 34.0975 -19.6675 34.7575 -20.6875 35.4375 C-23.875 35.0625 -23.875 35.0625 -26.6875 34.4375 C-28.5899722 28.98454909 -26.12368999 23.81622964 -24.5625 18.5 C-24.26601563 17.41525391 -23.96953125 16.33050781 -23.6640625 15.21289062 C-21.95854211 9.33390402 -20.67231557 5.1579924 -15.6875 1.4375 C-12.64382091 0.32395887 -11.38294981 0.15556089 -8.375 1.375 C-7.818125 1.725625 -7.26125 2.07625 -6.6875 2.4375 C-6.130625 1.90125 -5.57375 1.365 -5 0.8125 C-2.6875 -0.5625 -2.6875 -0.5625 0 0 Z M-13.6875 2.4375 C-20.93661991 9.68661991 -23.43485497 21.46950514 -23.6875 31.4375 C-22.0375 31.4375 -20.3875 31.4375 -18.6875 31.4375 C-18.18089844 30.37208984 -18.18089844 30.37208984 -17.6640625 29.28515625 C-17.21804687 28.36605469 -16.77203125 27.44695313 -16.3125 26.5 C-15.87164062 25.58347656 -15.43078125 24.66695312 -14.9765625 23.72265625 C-13.6875 21.4375 -13.6875 21.4375 -11.6875 20.4375 C-12.0175 24.0675 -12.3475 27.6975 -12.6875 31.4375 C-7.77730536 31.01379555 -7.77730536 31.01379555 -6.0078125 28.33203125 C-4.47691897 24.9758416 -3.48905478 21.69624854 -2.5625 18.125 C-2.39073242 17.46363037 -2.21896484 16.80226074 -2.04199219 16.12084961 C-0.88800554 11.55924122 -0.06989668 7.12185936 0.3125 2.4375 C-2.10335574 2.46843173 -2.10335574 2.46843173 -4.6875 3.4375 C-7.04851949 7.10115093 -7.6875 9.03531468 -7.6875 13.4375 C-9.0075 13.1075 -10.3275 12.7775 -11.6875 12.4375 C-11.3575 11.715625 -11.0275 10.99375 -10.6875 10.25 C-9.68146471 7.42052573 -9.51772598 5.40854534 -9.6875 2.4375 C-11.0075 2.4375 -12.3275 2.4375 -13.6875 2.4375 Z " fill="#504C3F" transform="translate(61.6875,31.5625)"/>
<path d="M0 0 C2.26441842 0.05859688 2.26441842 0.05859688 5.5 -0.625 C6.655 -0.74875 7.81 -0.8725 9 -1 C9.66 -0.34 10.32 0.32 11 1 C10.83691406 2.82128906 10.83691406 2.82128906 10.265625 5.015625 C10.06388672 5.82064453 9.86214844 6.62566406 9.65429688 7.45507812 C9.43837891 8.29490234 9.22246094 9.13472656 9 10 C8.6377367 11.61914815 8.27834428 13.23894139 7.921875 14.859375 C7.53312642 16.49003181 7.14249389 18.12024062 6.75 19.75 C6.57082031 20.57371094 6.39164063 21.39742187 6.20703125 22.24609375 C4.77134988 28.0732711 3.06483197 30.70488767 -2 34 C-5.8281673 34.62319003 -6.69985205 34.20009864 -10 32 C-10.99 32.66 -11.98 33.32 -13 34 C-16.1875 33.625 -16.1875 33.625 -19 33 C-19.44960844 26.59969163 -17.85296268 21.40767228 -15.8125 15.375 C-15.52052734 14.446875 -15.22855469 13.51875 -14.92773438 12.5625 C-13.12093401 7.13821331 -11.49111102 3.60170933 -7 0 C-4.32147752 -1.33926124 -2.86420842 -0.64444689 0 0 Z M-7.12988281 2.14306641 C-9.27813234 4.27617161 -9.98441045 5.84584613 -10.921875 8.7109375 C-11.22480469 9.62617187 -11.52773437 10.54140625 -11.83984375 11.484375 C-12.29037109 12.91523437 -12.29037109 12.91523437 -12.75 14.375 C-13.22373047 15.79425781 -13.22373047 15.79425781 -13.70703125 17.2421875 C-15.14200549 21.66513839 -16.18612326 25.31241256 -16 30 C-13.62694422 30.41780879 -13.62694422 30.41780879 -11 30 C-9.09937126 27.536222 -8.08491458 25.24342179 -7.0625 22.3125 C-6 20 -6 20 -3.875 18.6875 C-3.25625 18.460625 -2.6375 18.23375 -2 18 C-2.495 18.86625 -2.99 19.7325 -3.5 20.625 C-5.0477761 24.10749623 -5.26802896 26.24759458 -5 30 C-3.35 30 -1.7 30 0 30 C0 29.34 0 28.68 0 28 C0.66 28 1.32 28 2 28 C2.98197493 24.43826802 3.96008343 20.87548535 4.9375 17.3125 C5.21529297 16.30509766 5.49308594 15.29769531 5.77929688 14.25976562 C6.04677734 13.28330078 6.31425781 12.30683594 6.58984375 11.30078125 C6.83597412 10.40528564 7.08210449 9.50979004 7.33569336 8.5871582 C7.98197951 6.07018125 8.51524101 3.55252762 9 1 C6.62694422 0.58219121 6.62694422 0.58219121 4 1 C1.1952292 4.40579311 0.50254634 7.67810149 0 12 C-1.32 12 -2.64 12 -4 12 C-3.01 8.7 -2.02 5.4 -1 2 C-4.78534746 0.57733168 -4.78534746 0.57733168 -7.12988281 2.14306641 Z " fill="#726D5A" transform="translate(197,33)"/>
<path d="M0 0 C1.9375 2.9375 1.9375 2.9375 2.0625 6.4375 C0.75283657 10.51200845 -0.75986907 12.26394163 -4.0625 14.9375 C-7.68576739 16.1452558 -8.70396369 15.48061128 -12.0625 13.9375 C-13.0525 16.4125 -13.0525 16.4125 -14.0625 18.9375 C-12.94875 18.751875 -11.835 18.56625 -10.6875 18.375 C-7.0625 17.9375 -7.0625 17.9375 -5.0625 18.9375 C-4.125 21.6875 -4.125 21.6875 -4.0625 24.9375 C-6.57651601 28.08002002 -8.2321911 29.66073037 -12.0625 30.9375 C-17.36792058 31.2797852 -20.77195518 31.44794576 -25.0625 27.9375 C-26.93340263 22.3247921 -26.89722771 16.23090564 -24.24609375 10.83984375 C-17.39384657 -0.17350403 -17.39384657 -0.17350403 -13.0546875 -1.828125 C-4.25218134 -2.86371396 -4.25218134 -2.86371396 0 0 Z M-18.54296875 5.8203125 C-22.1804034 11.50571455 -23.37719053 17.25448983 -22.0625 23.9375 C-20.94378187 25.83227507 -20.94378187 25.83227507 -19.0625 26.9375 C-16.65531136 27.37468957 -16.65531136 27.37468957 -14.0625 27.25 C-12.763125 27.24419922 -12.763125 27.24419922 -11.4375 27.23828125 C-8.79832063 27.0833217 -8.79832063 27.0833217 -6.0625 24.9375 C-6.3925 23.2875 -6.7225 21.6375 -7.0625 19.9375 C-9.3725 19.9375 -11.6825 19.9375 -14.0625 19.9375 C-14.37019231 13.16826923 -14.37019231 13.16826923 -12.0625 9.9375 C-9.9375 8.6875 -9.9375 8.6875 -8.0625 7.9375 C-7.7325 9.2575 -7.4025 10.5775 -7.0625 11.9375 C-3.77174004 11.55845792 -3.77174004 11.55845792 -1.0625 9.9375 C-0.83331758 5.92092857 -0.83331758 5.92092857 -1.0625 1.9375 C-3.03758092 -0.45973945 -3.03758092 -0.45973945 -6.8125 -0.4375 C-12.09331688 -0.25606145 -15.24741585 1.62913441 -18.54296875 5.8203125 Z " fill="#6F6C57" transform="translate(179.0625,35.0625)"/>
<path d="M0 0 C2.5 1.5 2.5 1.5 4 4 C4.7152453 9.00671711 4.81148802 10.85436985 1.875 15 C-1.4580898 17.31867116 -3.02524236 17.61829563 -7 17 C-7.66 16.34 -8.32 15.68 -9 15 C-9.66 16.98 -10.32 18.96 -11 21 C-9.88625 20.79375 -8.7725 20.5875 -7.625 20.375 C-6.42875 20.25125 -5.2325 20.1275 -4 20 C-2 22 -2 22 -1.625 24.875 C-2 28 -2 28 -3.8125 30.3125 C-7.57105217 33.21195453 -11.17945042 33.41439812 -15.76953125 33.33203125 C-18 33 -18 33 -21.0625 31.0625 C-23.72161153 26.85938822 -23.8374655 23.84307881 -23 19 C-20.93859591 11.85784113 -16.4815134 4.72981074 -10.03125 0.80078125 C-6.66857777 -0.52488761 -3.5497575 -0.56737927 0 0 Z M-15.48046875 7.625 C-19.67718175 13.26763932 -19.96354884 19.15373192 -19 26 C-18.34 26.99 -17.68 27.98 -17 29 C-13.6389972 29.64995002 -10.37670434 29.51739825 -7 29 C-4.36483958 27.20808542 -4.36483958 27.20808542 -3 25 C-3.33 24.01 -3.66 23.02 -4 22 C-7.96 22.495 -7.96 22.495 -12 23 C-11.26132404 14.1358885 -11.26132404 14.1358885 -8 11 C-7.01 10.67 -6.02 10.34 -5 10 C-4.67 11.32 -4.34 12.64 -4 14 C-1.52733235 13.65555119 -1.52733235 13.65555119 1 13 C2.50662097 9.98675805 2.17770373 7.31713623 2 4 C0.02491908 1.60276055 0.02491908 1.60276055 -3.75 1.625 C-8.95860062 1.79453854 -11.97421062 3.77644227 -15.48046875 7.625 Z " fill="#68634E" transform="translate(33,33)"/>
<path d="M0 0 C2.21484375 1.2265625 2.21484375 1.2265625 4 3 C5.14987912 7.91235124 4.55064339 12.04081473 2.0625 16.375 C1.381875 17.24125 0.70125 18.1075 0 19 C-1.63834566 22.74479009 -0.43194983 25.29377692 1 29 C-0.9375 31.625 -0.9375 31.625 -4 34 C-6.50840751 33.7967325 -8.62562354 33.20798683 -11.01171875 32.41796875 C-11.66785156 32.28003906 -12.32398437 32.14210937 -13 32 C-13.66 32.66 -14.32 33.32 -15 34 C-20.33333333 34.33333333 -20.33333333 34.33333333 -23 33 C-24.01108172 22.68696641 -19.29071587 12.07672353 -13 4 C-8.83870378 -0.49869861 -5.85264356 -0.65029373 0 0 Z M-10 4 C-16.54743377 11.31923343 -19.51563145 20.31262895 -20 30 C-18.02 30 -16.04 30 -14 30 C-13.01 28.02 -12.02 26.04 -11 24 C-10.62875 24.825 -10.2575 25.65 -9.875 26.5 C-9.25625 27.325 -8.6375 28.15 -8 29 C-4.87364791 29.41746608 -4.87364791 29.41746608 -2 29 C-2.54723683 25.62537285 -3.0549 23.91765 -5 21 C-4.57847656 20.60167969 -4.15695313 20.20335938 -3.72265625 19.79296875 C-3.17480469 19.26316406 -2.62695312 18.73335937 -2.0625 18.1875 C-1.51722656 17.66542969 -0.97195312 17.14335938 -0.41015625 16.60546875 C2.8250871 12.92213076 2.29196097 8.59838535 2 4 C-2.38035613 1.07976258 -5.5216832 1.64888368 -10 4 Z " fill="#444133" transform="translate(113,32)"/>
<path d="M0 0 C2.75726791 2.75726791 3.21466396 5.35704515 3.4375 9.125 C3.12290586 17.3318037 0.02274772 24.59156571 -5.4375 30.66015625 C-7.90626178 32.77711948 -9.94301952 33.92742564 -13.21875 34.15234375 C-17.19692192 33.77768715 -19.38839904 33.51986082 -22.5 30.875 C-24.77614309 26.51239242 -25.53000433 23.30133458 -24.40625 18.421875 C-21.94917101 10.83882086 -18.24979731 3.3509517 -11.0625 -0.625 C-6.93203314 -1.13077145 -4.07838038 -1.00288042 0 0 Z M-14.71875 4.703125 C-19.67187736 11.06449446 -21.89597987 16.93618121 -21 25 C-19.10350449 28.14658666 -19.10350449 28.14658666 -16 30 C-11.93829661 30.65277376 -9.87750234 30.51017578 -6.3125 28.4375 C-0.39200414 22.19697734 1.363655 15.78051548 1.2890625 7.3515625 C1.15950034 4.79725653 1.15950034 4.79725653 -0.8125 2.375 C-5.23756669 -0.40647049 -11.09526528 1.11258105 -14.71875 4.703125 Z " fill="#7A775D" transform="translate(87,33)"/>
<path d="M0 0 C0.33 0.33 0.66 0.66 1 1 C0.76491154 8.40528646 -1.37505429 13.59280813 -5 20 C-3.35 21.32 -1.7 22.64 0 24 C-0.48648649 29.47297297 -0.48648649 29.47297297 -2.6328125 31.67578125 C-5.75491234 33.42230245 -8.06456936 33.39911127 -11.625 33.375 C-12.77226562 33.38273437 -13.91953125 33.39046875 -15.1015625 33.3984375 C-16.05804688 33.26695313 -17.01453125 33.13546875 -18 33 C-20.54393361 29.18409958 -20.41306265 27.55276743 -20 23 C-19.00940889 19.66112946 -17.69468827 16.50617379 -16.3125 13.3125 C-15.97283203 12.47138672 -15.63316406 11.63027344 -15.28320312 10.76367188 C-12.03773221 3.11406659 -8.90277009 -0.85603559 0 0 Z M-8.3359375 3.32421875 C-13.44296362 11.08234442 -17.53702284 19.77786293 -16 29 C-11.71 29 -7.42 29 -3 29 C-1.60229416 25.25308553 -1.60229416 25.25308553 -3 23 C-4.98 23 -6.96 23 -9 23 C-8.4225 21.90300781 -7.845 20.80601563 -7.25 19.67578125 C-6.49946927 18.22162797 -5.74949856 16.76718555 -5 15.3125 C-4.6184375 14.59126953 -4.236875 13.87003906 -3.84375 13.12695312 C-1.8837916 9.29453447 -0.44125747 6.42628851 -1 2 C-3.94983792 1.45119295 -6.08207247 1.09012446 -8.3359375 3.32421875 Z " fill="#7B7960" transform="translate(244,33)"/>
<path d="M0 0 C1 1 1 1 1.25 4.12890625 C0.97279392 8.42126908 -0.10133136 11.10060711 -2 14.9375 C-2.556875 16.08089844 -3.11375 17.22429688 -3.6875 18.40234375 C-4.3371875 19.68818359 -4.3371875 19.68818359 -5 21 C-3.68 21.33 -2.36 21.66 -1 22 C-0.25 25.25 -0.25 25.25 0 29 C-2.17162344 32.03380644 -3.43199791 32.89717815 -7.12890625 33.56640625 C-8.26199219 33.56511719 -9.39507812 33.56382813 -10.5625 33.5625 C-11.69816406 33.58441406 -12.83382812 33.60632813 -14.00390625 33.62890625 C-17 33 -17 33 -18.9296875 30.7109375 C-21.76675207 23.52508781 -16.39803073 14.79235278 -13.53515625 8.13671875 C-12.2089639 5.42696695 -11.02364102 3.22442003 -9 1 C-5.78419562 -0.07193479 -3.36629251 -0.14636054 0 0 Z M-7 2 C-14.27672622 14.20283731 -14.27672622 14.20283731 -16 28 C-14.91447634 29.31262571 -14.91447634 29.31262571 -12.27734375 29.09765625 C-11.17519531 29.08605469 -10.07304687 29.07445313 -8.9375 29.0625 C-7.83277344 29.05347656 -6.72804688 29.04445313 -5.58984375 29.03515625 C-4.73519531 29.02355469 -3.88054687 29.01195313 -3 29 C-2.61781233 27.34385343 -2.28604898 25.67542976 -2 24 C-3.06645115 22.70366379 -3.06645115 22.70366379 -5.5625 22.9375 C-6.366875 22.958125 -7.17125 22.97875 -8 23 C-7.11634766 21.22882812 -7.11634766 21.22882812 -6.21484375 19.421875 C-5.45510823 17.86488617 -4.69602765 16.30757764 -3.9375 14.75 C-3.54755859 13.97269531 -3.15761719 13.19539063 -2.75585938 12.39453125 C-2.39169922 11.64042969 -2.02753906 10.88632812 -1.65234375 10.109375 C-1.31195068 9.41811523 -0.97155762 8.72685547 -0.62084961 8.01464844 C0.11635505 5.62242947 -0.19215205 4.33429153 -1 2 C-2.98 2 -4.96 2 -7 2 Z " fill="#62604F" transform="translate(266,33)"/>
<path d="M0 0 C0 2.31 0 4.62 0 7 C-0.99 7.495 -0.99 7.495 -2 8 C-2 6.02 -2 4.04 -2 2 C-5.71091113 3.66351189 -8.19403611 5.31702252 -9.9831543 9.05297852 C-10.26070557 9.82053467 -10.53825684 10.58809082 -10.82421875 11.37890625 C-11.13037109 12.21744141 -11.43652344 13.05597656 -11.75195312 13.91992188 C-12.21504883 15.22799805 -12.21504883 15.22799805 -12.6875 16.5625 C-13.00783203 17.43841797 -13.32816406 18.31433594 -13.65820312 19.21679688 C-15.35910138 23.50468915 -15.35910138 23.50468915 -16 28 C-14.02 28 -12.04 28 -10 28 C-7.69 21.73 -5.38 15.46 -3 9 C-2.67 9 -2.34 9 -2 9 C-2.60934527 16.92148852 -4.07039721 25.60782834 -9.375 31.75 C-12.51827032 33.24679539 -14.55896206 33.45880506 -18 33 C-18.66 32.34 -19.32 31.68 -20 31 C-19.65926381 25.13933761 -17.79809501 19.86433393 -15.8125 14.375 C-15.53341797 13.54226562 -15.25433594 12.70953125 -14.96679688 11.8515625 C-12.31108607 4.48826721 -8.71163139 -1.03709898 0 0 Z " fill="#5A5641" transform="translate(136,33)"/>
<path d="M0 0 C2.75 0.375 2.75 0.375 3.75 1.375 C3.27051043 7.52497487 1.86895419 13.17875332 0.0625 19.0625 C-0.16888672 19.89072266 -0.40027344 20.71894531 -0.63867188 21.57226562 C-2.37703588 27.24123857 -4.17735258 30.18909017 -9.25 33.375 C-13.125 33.1875 -13.125 33.1875 -16.25 32.375 C-15.74942002 25.76207495 -14.4484738 20.2722321 -12 14.125 C-11.71253906 13.34898438 -11.42507812 12.57296875 -11.12890625 11.7734375 C-8.9396045 6.17111948 -6.55137581 0.75592798 0 0 Z M-4.0625 3.8125 C-9.42772675 10.32069486 -13.25 20.972136 -13.25 29.375 C-10.37635209 29.79246608 -10.37635209 29.79246608 -7.25 29.375 C-4.22724471 25.36040313 -2.71502832 20.63394468 -1.0625 15.9375 C-0.78986328 15.19951172 -0.51722656 14.46152344 -0.23632812 13.70117188 C1.2734387 9.44431053 2.07692226 5.95917658 1.75 1.375 C-1.49245025 1.04753473 -1.49245025 1.04753473 -4.0625 3.8125 Z " fill="#716E56" transform="translate(221.25,32.625)"/>
<path d="M0 0 C2.81015736 0.4379466 4.10878107 1.31380652 6.10546875 3.328125 C7.25534787 8.24047624 6.65611214 12.36893973 4.16796875 16.703125 C3.48734375 17.569375 2.80671875 18.435625 2.10546875 19.328125 C0.46712309 23.07291509 1.67351892 25.62190192 3.10546875 29.328125 C2.11546875 30.318125 1.12546875 31.308125 0.10546875 32.328125 C0.10546875 31.668125 0.10546875 31.008125 0.10546875 30.328125 C-0.88453125 29.998125 -1.87453125 29.668125 -2.89453125 29.328125 C-1.90453125 29.328125 -0.91453125 29.328125 0.10546875 29.328125 C-1.80337817 24.78641504 -1.80337817 24.78641504 -3.89453125 20.328125 C-1.59960938 18.52148438 -1.59960938 18.52148438 0.6953125 16.71484375 C2.64519501 14.79736926 3.07449027 12.97619476 3.203125 10.28515625 C3.19152344 9.57746094 3.17992188 8.86976562 3.16796875 8.140625 C3.14734375 6.8825 3.12671875 5.624375 3.10546875 4.328125 C-1.36961201 3.28740854 -3.75677423 3.36813483 -7.89453125 5.328125 C-9.22129633 5.68671016 -10.55289046 6.0299826 -11.89453125 6.328125 C-5.78342014 0.21701389 -5.78342014 0.21701389 0 0 Z " fill="#63614C" transform="translate(110.89453125,31.671875)"/>
<path d="M0 0 C1.58157934 4.74473802 -1.03169969 8.24014212 -2.96875 12.67578125 C-4.09166693 16.29548697 -3.9230355 18.36829486 -3 22 C0.63 22.33 4.26 22.66 8 23 C7.67 23.99 7.34 24.98 7 26 C4.87561661 26.08078641 2.7503677 26.13909141 0.625 26.1875 C-0.55835938 26.22230469 -1.74171875 26.25710937 -2.9609375 26.29296875 C-4.46527344 26.14794922 -4.46527344 26.14794922 -6 26 C-8.50789104 22.23816344 -8.36129382 20.46985298 -8 16 C-6.7578125 12.32421875 -6.7578125 12.32421875 -5.125 8.6875 C-4.85558594 8.06810547 -4.58617187 7.44871094 -4.30859375 6.81054688 C-3.10982366 4.11769991 -2.10081924 2.10081924 0 0 Z " fill="#312F23" transform="translate(232,40)"/>
<path d="M0 0 C-0.33 0.804375 -0.66 1.60875 -1 2.4375 C-2.20717135 6.73804795 -2.17721353 10.56966181 -2 15 C-3.3921875 14.690625 -3.3921875 14.690625 -4.8125 14.375 C-8.15173402 13.63307034 -8.15173402 13.63307034 -11 16 C-14.1875 15.625 -14.1875 15.625 -17 15 C-17 12.69 -17 10.38 -17 8 C-16.01 7.67 -15.02 7.34 -14 7 C-14 8.65 -14 10.3 -14 12 C-11.07471774 11.66916219 -11.07471774 11.66916219 -8 10 C-6.67995671 7.72377151 -5.76049606 5.46627209 -4.859375 2.99609375 C-3.7236162 0.3580358 -2.83567351 0 0 0 Z " fill="#39352A" transform="translate(195,51)"/>
<path d="M0 0 C0.66 0.66 1.32 1.32 2 2 C1.83691406 3.82128906 1.83691406 3.82128906 1.265625 6.015625 C1.06388672 6.82064453 0.86214844 7.62566406 0.65429688 8.45507812 C0.43837891 9.29490234 0.22246094 10.13472656 0 11 C-0.3622633 12.61914815 -0.72165572 14.23894139 -1.078125 15.859375 C-1.46687358 17.49003181 -1.85750611 19.12024062 -2.25 20.75 C-2.42917969 21.57371094 -2.60835937 22.39742187 -2.79296875 23.24609375 C-4.22735061 29.0679966 -5.9240016 31.72367376 -11 35 C-13.875 35.3125 -13.875 35.3125 -16 35 C-14.515 34.505 -14.515 34.505 -13 34 C-13 33.01 -13 32.02 -13 31 C-11.68 31 -10.36 31 -9 31 C-9 30.34 -9 29.68 -9 29 C-8.34 29 -7.68 29 -7 29 C-6.9175 27.96875 -6.835 26.9375 -6.75 25.875 C-5.7434302 17.72032585 -3.17505458 9.56033176 0 2 C-0.928125 2.309375 -1.85625 2.61875 -2.8125 2.9375 C-4.875 3.625 -6.9375 4.3125 -9 5 C-6.87278148 0.28973041 -5.16692016 -0.38751901 0 0 Z " fill="#858269" transform="translate(206,32)"/>
<path d="M0 0 C1.30432191 3.91296573 0.88063169 7.32116326 0.64453125 11.40625 C0.74855556 14.11356552 0.74855556 14.11356552 2.80859375 15.80078125 C5.51211773 17.28024981 7.95608797 17.65410091 11 18 C10.67 18.99 10.34 19.98 10 21 C1.21276596 21.44680851 1.21276596 21.44680851 -3 18 C-3.93742541 15.18772378 -4.13470844 13.41253156 -4.125 10.5 C-4.12757813 9.7265625 -4.13015625 8.953125 -4.1328125 8.15625 C-4 6 -4 6 -3 3 C-2.34 3 -1.68 3 -1 3 C-0.67 2.01 -0.34 1.02 0 0 Z " fill="#474437" transform="translate(157,45)"/>
<path d="M0 0 C2.4375 0.75 2.4375 0.75 5 2 C6.38671022 4.82753596 5.93378322 6.24686079 5.109375 9.3203125 C4.66668806 10.59222278 4.21300399 11.860344 3.75 13.125 C3.27576812 14.46689212 2.80311412 15.80934291 2.33203125 17.15234375 C2.10080566 17.80702637 1.86958008 18.46170898 1.63134766 19.13623047 C0.78845356 21.62449555 0.11448069 24.14976792 -0.5625 26.6875 C-1.63118036 30.37874654 -2.8527009 32.61239379 -6 35 C-6.33 34.34 -6.66 33.68 -7 33 C-7.66 32.67 -8.32 32.34 -9 32 C-8.21665283 31.62834717 -7.43330566 31.25669434 -6.6262207 30.8737793 C-3.29669572 28.49820021 -2.95685729 26.94423027 -1.98046875 23.01953125 C-1.68076172 21.85615234 -1.38105469 20.69277344 -1.07226562 19.49414062 C-0.78029297 18.27919922 -0.48832031 17.06425781 -0.1875 15.8125 C0.12380859 14.58595703 0.43511719 13.35941406 0.75585938 12.09570312 C1.5216775 9.06777608 2.26885559 6.03645192 3 3 C1.8553125 3.5259375 1.8553125 3.5259375 0.6875 4.0625 C-2 5 -2 5 -5 4 C-3.35 2.68 -1.7 1.36 0 0 Z " fill="#7F7C64" transform="translate(59,31)"/>
<path d="M0 0 C0.66 0 1.32 0 2 0 C2.04898437 0.61488281 2.09796875 1.22976562 2.1484375 1.86328125 C2.22320312 2.67152344 2.29796875 3.47976562 2.375 4.3125 C2.44460938 5.11300781 2.51421875 5.91351563 2.5859375 6.73828125 C2.89564426 9.27224441 2.89564426 9.27224441 5 12 C7.18505129 12.79437923 7.18505129 12.79437923 9.625 13.1875 C10.44226562 13.34605469 11.25953125 13.50460938 12.1015625 13.66796875 C12.72804688 13.77753906 13.35453125 13.88710938 14 14 C13.67 14.99 13.34 15.98 13 17 C8.2626588 17.46444522 5.05158942 17.66529126 0.9375 15.0625 C-1.65193788 10.96951755 -1.61908269 7.72271653 -1 3 C-0.67 2.01 -0.34 1.02 0 0 Z " fill="#39362A" transform="translate(11,49)"/>
<path d="M0 0 C0.33 0 0.66 0 1 0 C1.02578125 0.67546875 1.0515625 1.3509375 1.078125 2.046875 C1.39661816 7.5721821 1.39661816 7.5721821 3.5625 12.5625 C7.04482493 14.6161788 9.97693571 14.73179571 14 15 C13 18 13 18 11 19 C8.94140625 18.984375 8.94140625 18.984375 6.5625 18.75 C5.38880859 18.64945313 5.38880859 18.64945313 4.19140625 18.546875 C1.49873437 17.87490697 0.55223934 17.30618416 -1 15 C-1.328125 12.1875 -1.328125 12.1875 -1.25 9 C-1.23453125 7.948125 -1.2190625 6.89625 -1.203125 5.8125 C-1 3 -1 3 0 0 Z " fill="#201F18" transform="translate(65,48)"/>
<path d="M0 0 C2.5 1.5 2.5 1.5 4 4 C4.31584913 6.75841574 4.1862657 9.20601454 4 12 C2.00902154 9.01353231 1.05875074 6.40312738 0 3 C-4.54239804 2.68673117 -7.1111075 2.57264784 -11.25 4.5625 C-16.50386572 9.21933552 -18.10876249 13.10348928 -18.75 19.9375 C-18.8498795 21.62410155 -18.93893481 23.31154753 -19 25 C-19.33 25 -19.66 25 -20 25 C-21.99872311 15.07356841 -21.99872311 15.07356841 -19.71875 10.33984375 C-14.29942683 3.22103984 -9.17937875 -1.18443597 0 0 Z " fill="#5B5949" transform="translate(33,33)"/>
<path d="M0 0 C1.9375 2.9375 1.9375 2.9375 1.75 6.75 C1.481875 7.801875 1.21375 8.85375 0.9375 9.9375 C-1.7480594 7.2519406 -2.12299974 4.56128672 -3.0625 0.9375 C-10.08553397 0.53664005 -10.08553397 0.53664005 -16.0625 3.9375 C-17.42426581 5.91825027 -18.75843116 7.91829663 -20.0625 9.9375 C-22.3125 11.8125 -22.3125 11.8125 -24.0625 12.9375 C-23.46077192 9.0846441 -21.6514231 6.76625869 -19.25 3.75 C-18.56292969 2.86957031 -17.87585938 1.98914062 -17.16796875 1.08203125 C-12.57242073 -3.5987774 -5.24659547 -3.53342144 0 0 Z " fill="#8B896F" transform="translate(179.0625,35.0625)"/>
<path d="M0 0 C0.99 0 1.98 0 3 0 C3.33715892 5.5139531 2.44112982 9.00438349 0 13.9375 C-0.556875 15.08089844 -1.11375 16.22429688 -1.6875 17.40234375 C-2.3371875 18.68818359 -2.3371875 18.68818359 -3 20 C-1.68 20.33 -0.36 20.66 1 21 C1.33 23.31 1.66 25.62 2 28 C-1.5486135 30.36574234 -2.5764525 30.10865265 -6.6875 29.625 C-8.17830078 29.45871094 -8.17830078 29.45871094 -9.69921875 29.2890625 C-10.45847656 29.19367187 -11.21773437 29.09828125 -12 29 C-12 28.67 -12 28.34 -12 28 C-8.37 27.67 -4.74 27.34 -1 27 C-1 25.68 -1 24.36 -1 23 C-2.65 22.67 -4.3 22.34 -6 22 C-5.23546999 16.66789326 -2.75910849 12.59709921 -0.1796875 7.9375 C1.12027896 4.70049743 1.04582526 3.26970657 0 0 Z " fill="#625F49" transform="translate(264,34)"/>
<path d="M0 0 C2.8125 -0.3125 2.8125 -0.3125 6 0 C8.67510388 2.76427401 9.23017394 5.39981878 9.4375 9.125 C9.08461932 18.330583 5.33068336 25.52543748 -1 32 C-1.66 31.67 -2.32 31.34 -3 31 C-3 27.71171788 -0.24814003 26.24814003 2 24 C5.18406442 19.33761996 6.14859124 15.54033373 6.25 9.9375 C6.27578125 9.08027344 6.3015625 8.22304688 6.328125 7.33984375 C5.92895563 4.49338595 5.22558304 3.75238665 3 2 C2.01 1.34 1.02 0.68 0 0 Z " fill="#65614C" transform="translate(81,33)"/>
<path d="M0 0 C0 0.99 0 1.98 0 3 C0.66 3 1.32 3 2 3 C1.34 5.97 0.68 8.94 0 12 C-1.65 12.33 -3.3 12.66 -5 13 C-4.01 9.04 -3.02 5.08 -2 1 C-7.03770508 3.01508203 -7.91243 3.95421862 -11 8 C-11.66 8 -12.32 8 -13 8 C-12.45700313 4.19902189 -10.92723228 2.42542103 -8 0 C-5.00418914 -1.21704816 -3.04838368 -0.97983761 0 0 Z " fill="#74705E" transform="translate(54,33)"/>
<path d="M0 0 C0.66 0.33 1.32 0.66 2 1 C-0.17596661 12.96781634 -0.17596661 12.96781634 -3.75 16.3125 C-7.71049889 18.36891289 -9.74439555 18.10645716 -14 17 C-14 15.02 -14 13.04 -14 11 C-13.67 11 -13.34 11 -13 11 C-13 12.65 -13 14.3 -13 16 C-12.01 15.34 -11.02 14.68 -10 14 C-8.99710938 13.75507812 -7.99421875 13.51015625 -6.9609375 13.2578125 C-3.75938271 12.26910994 -3.75938271 12.26910994 -2.5390625 9.1796875 C-2.23742187 8.08914062 -1.93578125 6.99859375 -1.625 5.875 C-1.30789062 4.77929688 -0.99078125 3.68359375 -0.6640625 2.5546875 C-0.44492188 1.71164063 -0.22578125 0.86859375 0 0 Z " fill="#726E55" transform="translate(219,48)"/>
<path d="M0 0 C0.33 0 0.66 0 1 0 C0.64043142 5.57951246 0.12567332 10.19127181 -3 15 C-3.99 15.33 -4.98 15.66 -6 16 C-5.82836341 9.11893299 -4.48074563 5.26487612 0 0 Z M-4 9 C-3 11 -3 11 -3 11 Z " fill="#3C3D31" transform="translate(79,43)"/>
<path d="M0 0 C0.66 0 1.32 0 2 0 C2.66 0.99 3.32 1.98 4 3 C6.6556728 3.58348752 6.6556728 3.58348752 9.625 3.6875 C10.62789063 3.75324219 11.63078125 3.81898437 12.6640625 3.88671875 C13.43492187 3.92410156 14.20578125 3.96148437 15 4 C14.67 4.99 14.34 5.98 14 7 C11.85423363 7.02685938 9.70837355 7.04633088 7.5625 7.0625 C6.36753906 7.07410156 5.17257813 7.08570312 3.94140625 7.09765625 C1 7 1 7 0 6 C-0.04080783 4.00041636 -0.04254356 1.99954746 0 0 Z " fill="#242017" transform="translate(248,59)"/>
<path d="M0 0 C1.27386134 3.82158402 0.43280593 5.20491584 -0.9375 8.9375 C-2.30202484 12.67028491 -3 14.97514317 -3 19 C-1.68 19.66 -0.36 20.32 1 21 C-1.31 21 -3.62 21 -6 21 C-6.72786324 13.43022233 -4.29865466 7.75953824 -1 1 C-0.67 0.67 -0.34 0.34 0 0 Z " fill="#2F2D22" transform="translate(212,43)"/>
<path d="M0 0 C1.70840281 1.63412443 2.93453047 2.86906094 4 5 C5.97888961 5.72693904 7.97954558 6.39816251 10 7 C10 7.99 10 8.98 10 10 C7.21176345 11.0326802 6.1322726 11.04509293 3.25 10.0625 C2.5075 9.711875 1.765 9.36125 1 9 C1 8.01 1 7.02 1 6 C0.34 6 -0.32 6 -1 6 C-0.67 4.02 -0.34 2.04 0 0 Z " fill="#1B1B17" transform="translate(101,55)"/>
<path d="M0 0 C0.78375 0.04125 1.5675 0.0825 2.375 0.125 C1.85231534 2.88776177 1.26630413 5.4510876 0.375 8.125 C-0.285 8.125 -0.945 8.125 -1.625 8.125 C-1.625 7.135 -1.625 6.145 -1.625 5.125 C-3.98285318 6.01835797 -3.98285318 6.01835797 -4.75 9.1875 C-5.03875 10.156875 -5.3275 11.12625 -5.625 12.125 C-7.605 12.125 -9.585 12.125 -11.625 12.125 C-11.295 11.465 -10.965 10.805 -10.625 10.125 C-8.645 10.62 -8.645 10.62 -6.625 11.125 C-6.50382813 10.49851562 -6.38265625 9.87203125 -6.2578125 9.2265625 C-6.00644531 8.00066406 -6.00644531 8.00066406 -5.75 6.75 C-5.58757812 5.93789063 -5.42515625 5.12578125 -5.2578125 4.2890625 C-4.30414404 1.02775183 -3.41416017 0.16257906 0 0 Z " fill="#E6E5E5" transform="translate(203.625,33.875)"/>
<path d="M0 0 C0.75 1.75 0.75 1.75 1 4 C-0.5625 6.25 -0.5625 6.25 -3 8 C-6.25 8.25 -6.25 8.25 -9 8 C-9.33 7.01 -9.66 6.02 -10 5 C-10.66 5 -11.32 5 -12 5 C-11.34 3.68 -10.68 2.36 -10 1 C-9.01 1 -8.02 1 -7 1 C-6.67 1.99 -6.34 2.98 -6 4 C-4.35 4 -2.7 4 -1 4 C-0.67 2.68 -0.34 1.36 0 0 Z " fill="#373428" transform="translate(35,42)"/>
<path d="M0 0 C0 2.31 0 4.62 0 7 C-0.99 7.495 -0.99 7.495 -2 8 C-2 6.02 -2 4.04 -2 2 C-6.11624312 3.84521243 -8.34149627 5.50970209 -10.1875 9.6875 C-10.455625 10.450625 -10.72375 11.21375 -11 12 C-11.99 12 -12.98 12 -14 12 C-13.178129 7.80845793 -12.45923099 4.98609263 -9.25 2.0625 C-5.73439924 -0.16855433 -4.07003557 -0.48452804 0 0 Z " fill="#706D50" transform="translate(136,33)"/>
<path d="M0 0 C1.03159626 3.09478879 0.97482862 4.52631393 0.5625 7.6875 C0.46066406 8.49574219 0.35882813 9.30398437 0.25390625 10.13671875 C0.17011719 10.75160156 0.08632813 11.36648437 0 12 C0.66 12.33 1.32 12.66 2 13 C2 13.99 2 14.98 2 16 C0.33388095 16.042721 -1.33382885 16.04063832 -3 16 C-3.33 15.67 -3.66 15.34 -4 15 C-3.98831337 12.85258095 -3.89082116 10.70532863 -3.75 8.5625 C-3.68296875 7.38816406 -3.6159375 6.21382812 -3.546875 5.00390625 C-3.36640625 4.01261719 -3.1859375 3.02132812 -3 2 C-2.01 1.34 -1.02 0.68 0 0 Z " fill="#292720" transform="translate(50,51)"/>
<path d="M0 0 C3.62716299 0.02604785 5.54755703 0.61005703 8.1875 3.25 C7.8575 5.56 7.5275 7.87 7.1875 10.25 C6.8575 10.25 6.5275 10.25 6.1875 10.25 C5.8575 8.27 5.5275 6.29 5.1875 4.25 C0.71241924 3.20928354 -1.67474298 3.29000983 -5.8125 5.25 C-7.13926508 5.60858516 -8.47085921 5.9518576 -9.8125 6.25 C-3.8125 0.25 -3.8125 0.25 0 0 Z " fill="#8A866D" transform="translate(108.8125,31.75)"/>
<path d="M0 0 C0.33 0 0.66 0 1 0 C0.46457829 6.96048222 -1.14682487 13.6049523 -4 20 C-4.99 20.66 -5.98 21.32 -7 22 C-5.56006454 14.27670981 -2.94467554 7.2717751 0 0 Z " fill="#878266" transform="translate(133,42)"/>
<path d="M0 0 C0.99 0.33 1.98 0.66 3 1 C2.66226563 1.72445312 2.32453125 2.44890625 1.9765625 3.1953125 C-0.27090683 8.06699457 -2.46748639 12.84518148 -4 18 C-4.99 18 -5.98 18 -7 18 C-5.26375242 11.5811453 -3.14819255 5.86215164 0 0 Z " fill="#5B5745" transform="translate(98,38)"/>
<path d="M0 0 C1.51183868 3.9249658 0.46099883 6.76930452 -0.75 10.6875 C-1.09546875 11.84636719 -1.4409375 13.00523438 -1.796875 14.19921875 C-2.19390625 15.12347656 -2.5909375 16.04773438 -3 17 C-3.99 17.33 -4.98 17.66 -6 18 C-5.50356293 12.29097373 -4.20216829 4.20216829 0 0 Z " fill="#413F2D" transform="translate(185,41)"/>
<path d="M0 0 C-0.33 1.65 -0.66 3.3 -1 5 C-3.97 5 -6.94 5 -10 5 C-10.33 4.34 -10.66 3.68 -11 3 C-10.34 3 -9.68 3 -9 3 C-9 2.34 -9 1.68 -9 1 C-5.846632 0.29925156 -3.27275026 0 0 0 Z " fill="#FAF9F9" transform="translate(264,57)"/>
<path d="M0 0 C-0.33 0.804375 -0.66 1.60875 -1 2.4375 C-2.20717135 6.73804795 -2.17721353 10.56966181 -2 15 C-2.99 15 -3.98 15 -5 15 C-4.96744792 13.01432292 -4.93489583 11.02864583 -4.90234375 9.04296875 C-4.91736783 6.79694539 -4.91736783 6.79694539 -6 4 C-2.25 0 -2.25 0 0 0 Z " fill="#1F1D19" transform="translate(195,51)"/>
<path d="M0 0 C0.66 0 1.32 0 2 0 C2.33 0.99 2.66 1.98 3 3 C6.93075644 2.42547254 6.93075644 2.42547254 10 0 C9.4376049 3.26189156 8.5859495 4.91134848 6 7 C3 8 3 8 0 7 C-0.38133299 5.0085944 -0.71325582 3.00720923 -1 1 C-0.67 0.67 -0.34 0.34 0 0 Z " fill="#302D22" transform="translate(169,43)"/>
<path d="M0 0 C1.35304209 4.05912626 0.15216503 5.77149591 -1.4375 9.6875 C-1.91058594 10.86699219 -2.38367188 12.04648437 -2.87109375 13.26171875 C-3.24363281 14.16535156 -3.61617187 15.06898437 -4 16 C-4.99 16 -5.98 16 -7 16 C-5.42334814 9.95616788 -3.80824293 4.99011142 0 0 Z " fill="#494734" transform="translate(232,40)"/>
<path d="M0 0 C3.375 -0.125 3.375 -0.125 7 0 C7.66 0.66 8.32 1.32 9 2 C8.8125 5 8.8125 5 8 8 C7.01 8.66 6.02 9.32 5 10 C5 9.34 5 8.68 5 8 C1.37 8 -2.26 8 -6 8 C-6 7.67 -6 7.34 -6 7 C-0.06 6.505 -0.06 6.505 6 6 C6 4.35 6 2.7 6 1 C4.02 1 2.04 1 0 1 C0 0.67 0 0.34 0 0 Z " fill="#73715E" transform="translate(235,55)"/>
<path d="M0 0 C1.41687119 4.25061356 0.19320039 6.71851625 -1 11 C-1.66 11 -2.32 11 -3 11 C-3 12.65 -3 14.3 -3 16 C-5 13 -5 13 -4.86328125 10.87890625 C-3.02968479 3.16739774 -3.02968479 3.16739774 0 0 Z " fill="#4E4B38" transform="translate(251,48)"/>
<path d="M0 0 C0.99 0.33 1.98 0.66 3 1 C2.34 3.97 1.68 6.94 1 10 C-0.32 10 -1.64 10 -3 10 C-2.39009109 6.44219804 -1.4216319 3.3171411 0 0 Z " fill="#302E27" transform="translate(196,35)"/>
<path d="M0 0 C1.43410153 3.78819273 0.51009497 6.06521279 -0.9375 9.75 C-1.31777344 10.73484375 -1.69804688 11.7196875 -2.08984375 12.734375 C-2.39019531 13.48203125 -2.69054688 14.2296875 -3 15 C-3.33 15 -3.66 15 -4 15 C-4.34650743 9.34037856 -3.48055609 5.96111218 -1 1 C-0.67 0.67 -0.34 0.34 0 0 Z " fill="#3F3C2D" transform="translate(42,40)"/>
<path d="M0 0 C2.4375 0.75 2.4375 0.75 5 2 C5.9375 4 5.9375 4 6 6 C5.34 6.66 4.68 7.32 4 8 C3.67 6.35 3.34 4.7 3 3 C1.8553125 3.5259375 1.8553125 3.5259375 0.6875 4.0625 C-2 5 -2 5 -5 4 C-3.35 2.68 -1.7 1.36 0 0 Z " fill="#89876B" transform="translate(59,31)"/>
<path d="M0 0 C7.2 -0.48 7.2 -0.48 10.5 1.5 C12.68405234 5.14008723 12.28023018 7.79654733 12 12 C10 9 10 9 9.375 5.9375 C8.34846748 2.90228155 8.34846748 2.90228155 6.09375 2.16796875 C4.08480661 1.67634352 2.04183539 1.32932829 0 1 C0 0.67 0 0.34 0 0 Z " fill="#857F63" transform="translate(25,33)"/>
<path d="M0 0 C2.97 0 5.94 0 9 0 C8 3 8 3 6 4 C4.00039988 4.039992 1.99952758 4.04346799 0 4 C0 2.68 0 1.36 0 0 Z " fill="#373428" transform="translate(70,63)"/>
<path d="M0 0 C0.99 0 1.98 0 3 0 C2.67 2.64 2.34 5.28 2 8 C0.35 8.33 -1.3 8.66 -3 9 C-2.01 6.03 -1.02 3.06 0 0 Z " fill="#343330" transform="translate(52,37)"/>
<path d="M0 0 C0.66 0.33 1.32 0.66 2 1 C1.29875 1.680625 0.5975 2.36125 -0.125 3.0625 C-3.27934337 6.20780513 -6.13934304 9.5888386 -9 13 C-9.33 12.01 -9.66 11.02 -10 10 C-8.7121669 8.51749445 -7.41960936 7.03909182 -6.125 5.5625 C-5.40570313 4.73878906 -4.68640625 3.91507813 -3.9453125 3.06640625 C-2 1 -2 1 0 0 Z " fill="#797660" transform="translate(165,35)"/>
<path d="M0 0 C1.99097846 2.98646769 2.94124926 5.59687262 4 9 C3.01 9.99 2.02 10.98 1 12 C1 11.34 1 10.68 1 10 C0.01 9.67 -0.98 9.34 -2 9 C-1.01 9 -0.02 9 1 9 C0.649375 8.2575 0.29875 7.515 -0.0625 6.75 C-1.04509293 3.8677274 -1.0326802 2.78823655 0 0 Z " fill="#939077" transform="translate(110,52)"/>
<path d="M0 0 C0.99 0.33 1.98 0.66 3 1 C1.125 4.875 1.125 4.875 0 6 C-0.23287008 7.68183948 -0.41264166 9.3712416 -0.5625 11.0625 C-0.68818359 12.44115234 -0.68818359 12.44115234 -0.81640625 13.84765625 C-0.87699219 14.55792969 -0.93757813 15.26820312 -1 16 C-3.31323995 12.53014008 -3.03975162 11.01711296 -2.42578125 7.0078125 C-1.89999623 4.52842261 -1.07459989 2.29247976 0 0 Z " fill="#8F8A6E" transform="translate(65,45)"/>
<path d="M0 0 C2 2 2 2 2.3125 4.5 C2.1578125 5.7375 2.1578125 5.7375 2 7 C-1.5486135 9.36574234 -2.5764525 9.10865265 -6.6875 8.625 C-8.17830078 8.45871094 -8.17830078 8.45871094 -9.69921875 8.2890625 C-10.45847656 8.19367187 -11.21773437 8.09828125 -12 8 C-12 7.67 -12 7.34 -12 7 C-6.555 6.505 -6.555 6.505 -1 6 C-0.67 4.02 -0.34 2.04 0 0 Z " fill="#858273" transform="translate(264,55)"/>
<path d="M0 0 C1.231394 3.69418201 0.64432764 6.2056261 0 10 C-0.99 9.67 -1.98 9.34 -3 9 C-3.99 9.495 -3.99 9.495 -5 10 C-4.37240135 7.07120629 -3.41377341 4.63904371 -2 2 C-1.34 2 -0.68 2 0 2 C0 1.34 0 0.68 0 0 Z " fill="#6A6859" transform="translate(190,56)"/>
<path d="M0 0 C0.66 0 1.32 0 2 0 C0.5140084 4.59306496 -1.85014682 7.43569245 -5 11 C-5.66 10.67 -6.32 10.34 -7 10 C-7 8 -7 8 -4.625 5.5625 C-3.75875 4.716875 -2.8925 3.87125 -2 3 C-1.34 2.01 -0.68 1.02 0 0 Z " fill="#74735C" transform="translate(85,54)"/>
<path d="M0 0 C0.33 0 0.66 0 1 0 C1.32332002 4.63425362 0.8644432 7.28683289 -2 11 C-2.99 11.33 -3.98 11.66 -5 12 C-5 11.34 -5 10.68 -5 10 C-5.66 9.67 -6.32 9.34 -7 9 C-6.21625 8.62875 -5.4325 8.2575 -4.625 7.875 C-1.39371171 5.56693694 -0.92493788 3.78383679 0 0 Z " fill="#66634E" transform="translate(57,54)"/>
<path d="M0 0 C-2 2 -2 2 -4.4375 2.375 C-7.63131971 3.15398042 -8.2067141 4.35276843 -10 7 C-10.66 7 -11.32 7 -12 7 C-10.55172414 2.4137931 -10.55172414 2.4137931 -8.25 0.6875 C-5.42890579 -0.17450101 -2.93240449 -0.13329111 0 0 Z " fill="#7C7960" transform="translate(266,33)"/>
<path d="M0 0 C0.66 0.33 1.32 0.66 2 1 C1.34 4.3 0.68 7.6 0 11 C-0.99 11 -1.98 11 -3 11 C-2.32829194 7.1936543 -1.27253436 3.64793184 0 0 Z " fill="#737264" transform="translate(46,54)"/>
<path d="M0 0 C2.31 0 4.62 0 7 0 C7 0.99 7 1.98 7 3 C5.02 3.33 3.04 3.66 1 4 C0.67 2.68 0.34 1.36 0 0 Z " fill="#353325" transform="translate(36,63)"/>
<path d="M0 0 C-0.33 0.99 -0.66 1.98 -1 3 C-3.64 3 -6.28 3 -9 3 C-9 2.34 -9 1.68 -9 1 C-6.04335481 -0.4783226 -3.25770263 -0.06032783 0 0 Z " fill="#2D281C" transform="translate(168,63)"/>
<path d="M0 0 C0.66 0.66 1.32 1.32 2 2 C0.71034824 3.37562854 -0.62689293 4.70766393 -2 6 C-2.66 6 -3.32 6 -4 6 C-4 5.34 -4 4.68 -4 4 C-5.98 4 -7.96 4 -10 4 C-10 3.67 -10 3.34 -10 3 C-9.04287109 2.80083984 -9.04287109 2.80083984 -8.06640625 2.59765625 C-7.24011719 2.42105469 -6.41382813 2.24445312 -5.5625 2.0625 C-4.73878906 1.88847656 -3.91507813 1.71445312 -3.06640625 1.53515625 C-1.02338796 1.19247006 -1.02338796 1.19247006 0 0 Z " fill="#6E6C5C" transform="translate(29,59)"/>
<path d="M0 0 C0.33 0 0.66 0 1 0 C0.88590407 1.45922693 0.75834456 2.91740598 0.625 4.375 C0.55539063 5.18710937 0.48578125 5.99921875 0.4140625 6.8359375 C0 9 0 9 -2 11 C-2.05399736 9.54207116 -2.09279177 8.08357288 -2.125 6.625 C-2.15980469 5.40683594 -2.15980469 5.40683594 -2.1953125 4.1640625 C-2 2 -2 2 0 0 Z " fill="#252321" transform="translate(79,43)"/>
<path d="M0 0 C0.66 0 1.32 0 2 0 C1.34 1.98 0.68 3.96 0 6 C0.66 6.66 1.32 7.32 2 8 C0.02 8 -1.96 8 -4 8 C-2.68 5.36 -1.36 2.72 0 0 Z " fill="#898871" transform="translate(239,47)"/>
<path d="M0 0 C2 3 2 3 1.625 6.1875 C1.41875 7.115625 1.2125 8.04375 1 9 C0.01 9.33 -0.98 9.66 -2 10 C-1.54177532 6.53058454 -1.10868317 3.32604951 0 0 Z " fill="#52523D" transform="translate(181,49)"/>
<path d="M0 0 C2.125 0.375 2.125 0.375 4 1 C2 3 0 5 -2 7 C-2.66 7 -3.32 7 -4 7 C-2.92598892 4.08482708 -2.22189824 2.22189824 0 0 Z " fill="#797357" transform="translate(235,34)"/>
<path d="M0 0 C0.33 0.99 0.66 1.98 1 3 C-2.22791555 5.1519437 -3.28400809 5.20086443 -7 5 C-6.01 4.67 -5.02 4.34 -4 4 C-4 3.01 -4 2.02 -4 1 C-2.68 0.67 -1.36 0.34 0 0 Z " fill="#5F5F4C" transform="translate(197,62)"/>
<path d="M0 0 C1.65 0 3.3 0 5 0 C5 0.99 5 1.98 5 3 C2.39417629 3.93065133 1.35801776 4.14917407 -1.25 3.0625 C-1.8275 2.711875 -2.405 2.36125 -3 2 C-2.01 2 -1.02 2 0 2 C0 1.34 0 0.68 0 0 Z " fill="#454430" transform="translate(106,62)"/>
<path d="M0 0 C0.66 0 1.32 0 2 0 C1.71872579 1.48117801 1.42466268 2.95993249 1.125 4.4375 C0.96257812 5.26121094 0.80015625 6.08492187 0.6328125 6.93359375 C0.31957031 7.95646484 0.31957031 7.95646484 0 9 C-0.99 9.495 -0.99 9.495 -2 10 C-2.22036864 6.14354879 -1.60355101 3.50776784 0 0 Z " fill="#747057" transform="translate(206,34)"/>
<path d="M0 0 C0.99 0.33 1.98 0.66 3 1 C3 3.97 3 6.94 3 10 C2.01 10 1.02 10 0 10 C0 6.7 0 3.4 0 0 Z " fill="#CAC9BC" transform="translate(132,34)"/>
<path d="M0 0 C0.4125 0.61875 0.825 1.2375 1.25 1.875 C3.05573879 4.06768281 4.4090534 4.92788417 7 6 C4.36 6 1.72 6 -1 6 C-0.67 4.02 -0.34 2.04 0 0 Z " fill="#0A0804" transform="translate(118,58)"/>
<path d="M0 0 C-0.66 1.32 -1.32 2.64 -2 4 C-2.66 4 -3.32 4 -4 4 C-4 3.34 -4 2.68 -4 2 C-5.98 2 -7.96 2 -10 2 C-10 1.67 -10 1.34 -10 1 C-2.25 0 -2.25 0 0 0 Z " fill="#5C5A4F" transform="translate(172,61)"/>
<path d="M0 0 C0.33 0 0.66 0 1 0 C1 1.65 1 3.3 1 5 C0.34 5 -0.32 5 -1 5 C-0.67 5.99 -0.34 6.98 0 8 C-0.66 8.66 -1.32 9.32 -2 10 C-2.25 3.375 -2.25 3.375 0 0 Z " fill="#7B7B70" transform="translate(76,47)"/>
<path d="M0 0 C2 1 2 1 2 1 Z " fill="#FFFFFF" transform="translate(246,75)"/>
<path d="" fill="#FFFFFF" transform="translate(0,0)"/>
<path d="" fill="#FFFFFF" transform="translate(0,0)"/>
<path d="" fill="#FFFFFF" transform="translate(0,0)"/>
<path d="" fill="#FFFFFF" transform="translate(0,0)"/>
<path d="" fill="#FFFFFF" transform="translate(0,0)"/>
<path d="" fill="#FFFFFF" transform="translate(0,0)"/>
<path d="" fill="#FFFFFF" transform="translate(0,0)"/>
<path d="" fill="#FFFFFF" transform="translate(0,0)"/>
<path d="" fill="#FFFFFF" transform="translate(0,0)"/>
<path d="" fill="#FFFFFF" transform="translate(0,0)"/>
<path d="" fill="#FFFFFF" transform="translate(0,0)"/>
<path d="" fill="#FFFFFF" transform="translate(0,0)"/>
<path d="" fill="#FFFFFF" transform="translate(0,0)"/>
<path d="" fill="#FFFFFF" transform="translate(0,0)"/>
<path d="" fill="#FFFFFF" transform="translate(0,0)"/>
<path d="" fill="#FFFFFF" transform="translate(0,0)"/>
<path d="" fill="#FFFFFF" transform="translate(0,0)"/>
<path d="" fill="#FFFFFF" transform="translate(0,0)"/>
<path d="" fill="#FFFFFF" transform="translate(0,0)"/>
<path d="" fill="#FFFFFF" transform="translate(0,0)"/>
<path d="" fill="#FFFFFF" transform="translate(0,0)"/>
<path d="" fill="#FFFFFF" transform="translate(0,0)"/>
<path d="" fill="#FFFFFF" transform="translate(0,0)"/>
<path d="" fill="#FFFFFF" transform="translate(0,0)"/>
<path d="" fill="#FFFFFF" transform="translate(0,0)"/>
<path d="" fill="#FFFFFF" transform="translate(0,0)"/>
<path d="" fill="#FFFFFF" transform="translate(0,0)"/>
<path d="" fill="#FFFFFF" transform="translate(0,0)"/>
<path d="" fill="#FFFFFF" transform="translate(0,0)"/>
<path d="" fill="#FFFFFF" transform="translate(0,0)"/>
<path d="" fill="#FFFFFF" transform="translate(0,0)"/>
<path d="" fill="#FFFFFF" transform="translate(0,0)"/>
<path d="" fill="#FFFFFF" transform="translate(0,0)"/>
<path d="" fill="#FFFFFF" transform="translate(0,0)"/>
<path d="" fill="#FFFFFF" transform="translate(0,0)"/>
<path d="" fill="#FFFFFF" transform="translate(0,0)"/>
<path d="" fill="#FFFFFF" transform="translate(0,0)"/>
<path d="" fill="#FFFFFF" transform="translate(0,0)"/>
<path d="" fill="#00FFFF" transform="translate(0,0)"/>
<path d="" fill="#FFFFFF" transform="translate(0,0)"/>
<path d="" fill="#FFFFFF" transform="translate(0,0)"/>
<path d="" fill="#FFFFFF" transform="translate(0,0)"/>
<path d="" fill="#FFFFFF" transform="translate(0,0)"/>
<path d="" fill="#FFFFFF" transform="translate(0,0)"/>
<path d="" fill="#FFFFFF" transform="translate(0,0)"/>
<path d="" fill="#FFFFFF" transform="translate(0,0)"/>
<path d="" fill="#FFFFFF" transform="translate(0,0)"/>
<path d="" fill="#FFFFFF" transform="translate(0,0)"/>
<path d="" fill="#FFFFFF" transform="translate(0,0)"/>
<path d="" fill="#FFFFFF" transform="translate(0,0)"/>
<path d="" fill="#FFFFFF" transform="translate(0,0)"/>
<path d="" fill="#FFFFFF" transform="translate(0,0)"/>
<path d="" fill="#FFFFFF" transform="translate(0,0)"/>
<path d="" fill="#FFFFFF" transform="translate(0,0)"/>
<path d="" fill="#FFFFFF" transform="translate(0,0)"/>
<path d="" fill="#FFFFFF" transform="translate(0,0)"/>
<path d="" fill="#FFFFFF" transform="translate(0,0)"/>
<path d="" fill="#FFFFFF" transform="translate(0,0)"/>
<path d="" fill="#FFFFFF" transform="translate(0,0)"/>
<path d="" fill="#FFFFFF" transform="translate(0,0)"/>
<path d="" fill="#FFFFFF" transform="translate(0,0)"/>
<path d="" fill="#FFFFFF" transform="translate(0,0)"/>
<path d="" fill="#FFFFFF" transform="translate(0,0)"/>
<path d="" fill="#FFFFFF" transform="translate(0,0)"/>
<path d="" fill="#FFFFFF" transform="translate(0,0)"/>
<path d="" fill="#FFFFFF" transform="translate(0,0)"/>
<path d="" fill="#FFFFFF" transform="translate(0,0)"/>
<path d="" fill="#FFFFFF" transform="translate(0,0)"/>
<path d="" fill="#FFFFFF" transform="translate(0,0)"/>
<path d="" fill="#FFFFFF" transform="translate(0,0)"/>
<path d="" fill="#FFFFFF" transform="translate(0,0)"/>
<path d="" fill="#FFFFFF" transform="translate(0,0)"/>
</svg>
